# xmcd
#
# Track frame offsets:
#	150
#	18725
#	47600
#	62375
#	79025
#	93500
#	113900
#	144050
#	157850
#	174425
#	196625
#	213350
#
# Disc length: 3068 seconds
#
# Revision: 0
# Processed by: cddbd v1.5.1PL2 Copyright (c) Steve Scherf et al.
# Submitted via: audiograbber 1.83.01
#
DISCID=8b0bfa0c
DTITLE=Paul Millns - Finally Falls The Rain
DYEAR=1984
DGENRE=Blues
TTITLE0=Down In The Danger Zone
TTITLE1=Finally Falls The Rain
TTITLE2=Charly
TTITLE3=God Bless The Child
TTITLE4=Money Makes Them Run
TTITLE5=Two
TTITLE6=Yesterday's Hero
TTITLE7=The Glory Of Love
TTITLE8=Don't Turn Out The Light
TTITLE9=The Strories I Could Tell
TTITLE10=Bring It On Home To Me
TTITLE11=Salvador
EXTD=
EXTT0=
EXTT1=
EXTT2=
EXTT3=
EXTT4=
EXTT5=
EXTT6=
EXTT7=
EXTT8=
EXTT9=
EXTT10=
EXTT11=
PLAYORDER=
